<?xml version="1.0" ?><svg viewBox="0 0 64 64" xmlns="http://www.w3.org/2000/svg"><g data-name="filled outline" id="filled_outline"><polygon points="55.279 50.054 35.374 52 35.082 49.014 35.98 47.922 33.839 26.026 51.754 24.275 53.894 46.17 54.987 47.068 55.279 50.054" style="fill:#a8d6da"/><rect height="18" style="fill:#fbb540" transform="translate(36.125 77.939) rotate(-174.417)" width="18" x="10.963" y="29.089"/><path d="M55.93,25.876l-3.982.389.39,3.981,3.981-.389L57,36.824l-3.981.389.389,3.981,3.981-.389a4,4,0,0,0,3.592-4.37L60.3,29.468A4,4,0,0,0,55.93,25.876Z" style="fill:#a8d6da"/><polygon points="8.745 50.054 28.651 52 28.942 49.014 28.044 47.922 30.185 26.026 12.27 24.275 10.13 46.17 9.037 47.068 8.745 50.054" style="fill:#a8d6da"/><path d="M8.1,25.876l3.981.389-.389,3.981-3.982-.389-.681,6.967,3.981.389-.389,3.981-3.981-.389a4,4,0,0,1-3.592-4.37l.681-6.967A4,4,0,0,1,8.1,25.876Z" style="fill:#a8d6da"/><rect height="2" style="fill:#fbc778" width="2" x="31" y="12"/><rect height="2" style="fill:#fbc778" width="2" x="35" y="15"/><rect height="2" style="fill:#fbc778" width="2" x="27" y="15"/><rect height="2" style="fill:#fbc778" width="2" x="31" y="18"/><polygon points="28.257 45.751 10.42 43.203 10.13 46.17 9.037 47.068 28.942 49.014 28.044 47.922 28.257 45.751" style="fill:#8aced8"/><polygon points="35.781 45.737 53.617 43.189 53.907 46.156 55 47.054 35.095 49 35.993 47.907 35.781 45.737" style="fill:#8aced8"/><rect height="18" style="fill:#fbb540" transform="translate(36.125 77.939) rotate(-174.417)" width="18" x="10.963" y="29.089"/><rect height="2" style="fill:#fbc778" transform="translate(-22.896 64.836) rotate(-84.395)" width="4.999" x="21.807" y="44.045"/><rect height="2" style="fill:#fbc778" transform="translate(-26.101 60.522) rotate(-84.395)" width="5" x="17.826" y="43.655"/><rect height="2" style="fill:#fbc778" transform="translate(-29.306 56.209) rotate(-84.395)" width="4.999" x="13.845" y="43.266"/><path d="M12.27,24.275l13.713,1.34a3,3,0,1,1-.389,3.981l-13.713-1.34Z" style="fill:#eebd72"/><rect height="6" rx="3" ry="3" style="fill:#ebebeb" transform="translate(-5.373 53.507) rotate(-84.417)" width="16" x="18.81" y="26.715"/><rect height="4" rx="2" ry="2" style="fill:#ebebeb" transform="translate(-7.763 46.913) rotate(-84.417)" width="11" x="16.48" y="25.736"/><path d="M12.492,19.724h9a0,0,0,0,1,0,0v.5a4.5,4.5,0,0,1-4.5,4.5h0a4.5,4.5,0,0,1-4.5-4.5v-.5a0,0,0,0,1,0,0Z" style="fill:#ebebeb" transform="translate(31.741 45.997) rotate(-174.417)"/><rect height="18" style="fill:#fbb540" transform="translate(-3.497 4.467) rotate(-5.583)" width="18" x="35.061" y="29.089"/><rect height="4.999" style="fill:#fbc778" transform="translate(-4.194 4.077) rotate(-5.583)" width="2" x="38.718" y="42.545"/><rect height="5" style="fill:#fbc778" transform="translate(-4.136 4.462) rotate(-5.581)" width="2" x="42.698" y="42.155"/><rect height="4.999" style="fill:#fbc778" transform="translate(-4.08 4.848) rotate(-5.583)" width="2" x="46.68" y="41.766"/><path d="M51.754,24.275l-13.713,1.34A3,3,0,1,0,38.43,29.6l13.713-1.34Z" style="fill:#eebd72"/><rect height="16" rx="3" ry="3" style="fill:#ebebeb" transform="translate(-2.714 3.762) rotate(-5.583)" width="6" x="34.214" y="21.715"/><rect height="11" rx="2" ry="2" style="fill:#ebebeb" transform="translate(-2.499 4.222) rotate(-5.583)" width="4" x="40.045" y="22.236"/><path d="M47.032,19.724h0a4.5,4.5,0,0,1,4.5,4.5v.5a0,0,0,0,1,0,0h-9a0,0,0,0,1,0,0v-.5A4.5,4.5,0,0,1,47.032,19.724Z" style="fill:#ebebeb" transform="translate(-1.939 4.681) rotate(-5.583)"/><path d="M61.976,36.337,61.3,29.37a5,5,0,0,0-5.463-4.489l-2.986.292-.1-1-.049-.5a5.487,5.487,0,0,0-10.166-2.306,2.937,2.937,0,0,0-2.858.684,3.987,3.987,0,0,0-6.929,3.07l.037.378a3.933,3.933,0,0,0,.509,5.214l1.651,16.887-.634.772a1,1,0,0,0-.223.732l.292,2.986a1,1,0,0,0,.994.9c.032,0,.065,0,.1-.005l19.9-1.946a1,1,0,0,0,.9-1.092l-.291-2.985a1,1,0,0,0-.36-.676l-.772-.635L54.5,42.092l2.985-.292A5.007,5.007,0,0,0,61.976,36.337ZM50.855,25.367l.2,1.991-5.971.584-.2-1.991Zm-3.968-4.636a3.5,3.5,0,0,1,3.739,2.649l-5.937.58h0a2.947,2.947,0,0,0-.536-1.414A3.519,3.519,0,0,1,46.887,20.731ZM35.224,29.909h0l-.487-4.975a2,2,0,1,1,3.982-.389,1,1,0,0,0,1.99-.2,1,1,0,1,1,1.99-.2l.682,6.967a1,1,0,1,1-1.991.194,1,1,0,0,0-1.991.2l.292,2.985a2,2,0,0,1-3.981.391Zm2.469,8.783c.132,0,.264-.006.4-.019A4.007,4.007,0,0,0,41.682,34.3l-.018-.181a2.728,2.728,0,0,0,1.014.084,3,3,0,0,0,2.693-3.278l-.1-1,5.971-.583L52.8,45.272l-3.981.39-.389-3.981-1.991.2.389,3.98-1.991.2-.389-3.982-1.99.2.389,3.98-1.99.2-.389-3.981-1.991.2.39,3.981-1.991.194-.832-8.51A3.939,3.939,0,0,0,37.693,38.692ZM36.271,50.907l-.154-1.578.372-.452L53.58,47.206l.452.372.155,1.577ZM53.43,31.144l1.991-.194.486,4.976-1.99.194Zm.876,8.958-.2-1.991,2.986-.292a1,1,0,0,0,.9-1.092l-.682-6.967a1,1,0,0,0-1.092-.9l-2.985.291-.187-1.906-.008-.084,2.986-.292a3.01,3.01,0,0,1,3.278,2.694l.68,6.967a3,3,0,0,1-2.694,3.278Z"/><path d="M2.048,36.337A5,5,0,0,0,6.538,41.8l2.986.292-.349,3.569L8.4,46.3a.994.994,0,0,0-.36.675L7.75,49.956a1,1,0,0,0,.9,1.093L28.553,53c.033,0,.066.005.1.005a1,1,0,0,0,1-.9l.292-2.986a1,1,0,0,0-.223-.732l-.635-.772,1.225-12.526h0l.426-4.36a3.931,3.931,0,0,0,.509-5.213l.037-.379a4,4,0,0,0-6.52-3.481,4.176,4.176,0,0,0-.41.41,2.959,2.959,0,0,0-2.859-.687A5.49,5.49,0,0,0,11.324,23.68l-.049.5-.1,1-2.986-.292A5,5,0,0,0,2.729,29.37ZM21.325,24.155a1,1,0,1,1,1.99.2,1,1,0,0,0,1.991.2,1.985,1.985,0,0,1,.72-1.352,2.026,2.026,0,0,1,1.464-.445,2,2,0,0,1,1.8,2.186l-.1.995-.875,8.96a1.985,1.985,0,0,1-.72,1.348,1.964,1.964,0,0,1-1.465.446,2,2,0,0,1-1.8-2.186l.292-2.985a1,1,0,1,0-1.99-.2,1.012,1.012,0,0,1-1.093.9,1,1,0,0,1-.9-1.093Zm-6.75-2.644a3.5,3.5,0,0,1,5.293,1.03,3,3,0,0,0-.533,1.419h0L13.4,23.38A3.468,3.468,0,0,1,14.575,21.511Zm-1.406,3.856,3.113.3,2.858.28-.2,1.991-5.971-.585Zm-.389,3.982,5.971.583-.1,1a3,3,0,0,0,2.694,3.278,2.722,2.722,0,0,0,1.013-.084l-.017.181a4.006,4.006,0,0,0,3.591,4.371c.131.013.262.019.392.019a3.947,3.947,0,0,0,1.653-.375l-.833,8.512-1.99-.194.389-3.981-1.99-.2-.389,3.981-1.991-.2.389-3.98-1.99-.2-.39,3.982-1.99-.2.389-3.98-1.99-.2L15.2,45.662l-3.981-.39ZM27.536,48.877l.371.452-.154,1.578L9.838,49.156l.154-1.578.453-.372ZM8.117,35.926,8.6,30.95l1.99.194-.486,4.976Zm-4.079.606.682-6.967A3.005,3.005,0,0,1,7.7,26.856,2.909,2.909,0,0,1,8,26.871l2.986.292-.1,1-.1.995L7.8,28.862a1.012,1.012,0,0,0-1.092.9l-.681,6.967a1,1,0,0,0,.9,1.092l2.985.292-.067.689-.128,1.3L6.733,39.81a3,3,0,0,1-2.695-3.278Z"/><rect height="2" width="2" x="31" y="12"/><rect height="2" width="2" x="35" y="15"/><rect height="2" width="2" x="27" y="15"/><rect height="2" width="2" x="31" y="18"/></g></svg>